<svg xmlns="http://www.w3.org/2000/svg" xmlns:xlink="http://www.w3.org/1999/xlink" xmlns:lucid="lucid" width="803.5" height="1001"><g transform="translate(23 -259.5)" lucid:page-tab-id="0_0"><path d="M80 286a6 6 0 0 1 6-6h268a6 6 0 0 1 6 6v408a6 6 0 0 1-6 6H86a6 6 0 0 1-6-6z" stroke="#3a414a" fill="#f2f3f5"/><use xlink:href="#a" transform="matrix(1,0,0,1,92.00000000000006,292) translate(42.44444444444444 17.77777777777778)"/><use xlink:href="#b" transform="matrix(1,0,0,1,92.00000000000006,292) translate(123.67901234567901 17.77777777777778)"/><path d="M260 340c22.1 0 40 17.9 40 40s-17.9 40-40 40h-80c-22.1 0-40-17.9-40-40s17.9-40 40-40z" stroke="#9391ff" fill="#f2f2ff"/><use xlink:href="#c" transform="matrix(1,0,0,1,145,345) translate(43.54938271604938 39.65277777777778)"/><path d="M260 460c22.1 0 40 17.9 40 40s-17.9 40-40 40h-80c-22.1 0-40-17.9-40-40s17.9-40 40-40z" fill="#e3fae3"/><path d="M265.86 460.47l3.86.73m3.74 1.18l1.2.4 2.4 1.12m3.47 1.84l2.85 1.8.43.35m3.04 2.5l.42.33 2.33 2.45m2.47 3.04l1.6 2.2.6 1.04m1.9 3.44l1.46 3.64m1.1 3.76l.5 1.88.27 1.96m.43 3.9L300 500l-.12 1.96m-.35 3.9l-.73 3.86m-1.18 3.74l-.4 1.18-1.12 2.43m-1.84 3.46l-1.8 2.85-.35.43m-2.5 3.04l-.33.42-2.45 2.33m-3.04 2.47l-2.2 1.6-1.04.6m-3.44 1.9l-3.64 1.46m-3.76 1.1l-1.88.5-1.96.27m-3.9.43L260 540h-2m-4 0h-4m-4 0h-4m-4 0h-4m-4 0h-4m-4 0h-4m-4 0h-4m-4 0h-4m-4 0h-4m-4 0h-4m-4 0h-2l-1.96-.12m-3.9-.35l-3.86-.73m-3.74-1.18l-1.2-.4-2.4-1.12m-3.47-1.84l-2.85-1.8-.43-.35m-3.04-2.5l-.42-.33-2.33-2.45m-2.47-3.04l-1.6-2.2-.6-1.04m-1.9-3.44l-1.46-3.64m-1.1-3.76l-.5-1.88-.27-1.96m-.43-3.9L140 500l.12-1.96m.35-3.9l.73-3.86m1.18-3.74l.4-1.2 1.12-2.4m1.84-3.47l1.8-2.85.35-.43m2.48-3.04l.35-.42 2.46-2.33m3.02-2.47l2.2-1.6 1.04-.6m3.44-1.9l3.64-1.46m3.76-1.1l1.88-.5 1.96-.27m3.9-.43L180 460h2m4 0h4m4 0h4m4 0h4m4 0h4m4 0h4m4 0h4m4 0h4m4 0h4m4 0h4m4 0h2l1.96.12" stroke="#3a414a" fill="none"/><use xlink:href="#d" transform="matrix(1,0,0,1,145,465) translate(34.90740740740741 39.65277777777778)"/><path d="M260 580c22.1 0 40 17.9 40 40s-17.9 40-40 40h-80c-22.1 0-40-17.9-40-40s17.9-40 40-40z" fill="#fff3d9"/><path d="M265.86 580.47l3.86.73m3.74 1.18l1.2.4 2.4 1.12m3.47 1.84l2.85 1.8.43.35m3.04 2.5l.42.33 2.33 2.45m2.47 3.04l1.6 2.2.6 1.04m1.9 3.44l1.46 3.64m1.1 3.76l.5 1.88.27 1.96m.43 3.9L300 620l-.12 1.96m-.35 3.9l-.73 3.86m-1.18 3.74l-.4 1.18-1.12 2.43m-1.84 3.46l-1.8 2.85-.35.43m-2.5 3.04l-.33.42-2.45 2.33m-3.04 2.47l-2.2 1.6-1.04.6m-3.44 1.9l-3.64 1.46m-3.76 1.1l-1.88.5-1.96.27m-3.9.43L260 660h-2m-4 0h-4m-4 0h-4m-4 0h-4m-4 0h-4m-4 0h-4m-4 0h-4m-4 0h-4m-4 0h-4m-4 0h-4m-4 0h-2l-1.96-.12m-3.9-.35l-3.86-.73m-3.74-1.18l-1.2-.4-2.4-1.12m-3.47-1.84l-2.85-1.8-.43-.35m-3.04-2.5l-.42-.33-2.33-2.45m-2.47-3.04l-1.6-2.2-.6-1.04m-1.9-3.44l-1.46-3.64m-1.1-3.76l-.5-1.88-.27-1.96m-.43-3.9L140 620l.12-1.96m.35-3.9l.73-3.86m1.18-3.74l.4-1.18 1.12-2.43m1.84-3.46l1.8-2.85.35-.43m2.48-3.04l.35-.42 2.46-2.33m3.02-2.47l2.2-1.6 1.04-.6m3.44-1.9l3.64-1.46m3.76-1.1l1.88-.5 1.96-.27m3.9-.43L180 580h2m4 0h4m4 0h4m4 0h4m4 0h4m4 0h4m4 0h4m4 0h4m4 0h4m4 0h4m4 0h2l1.96.12" stroke="#3a414a" fill="none"/><use xlink:href="#e" transform="matrix(1,0,0,1,145,585) translate(39.876543209876544 39.65277777777778)"/><path d="M220 421v1.84m0 3.7v3.67m0 3.7v3.7m0 3.67v1.85" stroke="#3a414a" fill="none"/><path d="M220.5 421h-1v-.5h1z" stroke="#3a414a" stroke-width=".05" fill="#3a414a"/><path d="M220 457.88l-4.63-14.26h9.26z" stroke="#3a414a" fill="#3a414a"/><path d="M220 541v1.84m0 3.7v3.68m0 3.68v3.7m0 3.67v1.85" stroke="#3a414a" fill="none"/><path d="M220.5 541h-1v-.5h1z" stroke="#3a414a" stroke-width=".05" fill="#3a414a"/><path d="M220 577.88l-4.63-14.26h9.26z" stroke="#3a414a" fill="#3a414a"/><path d="M480 286a6 6 0 0 1 6-6h268a6 6 0 0 1 6 6v168a6 6 0 0 1-6 6H486a6 6 0 0 1-6-6z" stroke="#3a414a" fill="#f2f3f5"/><use xlink:href="#f" transform="matrix(1,0,0,1,492,292) translate(66.45679012345678 17.77777777777778)"/><use xlink:href="#g" transform="matrix(1,0,0,1,492,292) translate(112.01234567901234 17.77777777777778)"/><path d="M660 340c22.1 0 40 17.9 40 40s-17.9 40-40 40h-80c-22.1 0-40-17.9-40-40s17.9-40 40-40z" stroke="#9391ff" fill="#f2f2ff"/><use xlink:href="#h" transform="matrix(1,0,0,1,545,345) translate(15.185185185185176 39.65277777777778)"/><use xlink:href="#i" transform="matrix(1,0,0,1,545,345) translate(57.16049382716049 39.65277777777778)"/><path d="M480 526a6 6 0 0 1 6-6h268a6 6 0 0 1 6 6v168a6 6 0 0 1-6 6H486a6 6 0 0 1-6-6z" stroke="#3a414a" fill="#f2f3f5"/><use xlink:href="#j" transform="matrix(1,0,0,1,492,532) translate(49.20370370370371 17.77777777777778)"/><use xlink:href="#g" transform="matrix(1,0,0,1,492,532) translate(129.26543209876542 17.77777777777778)"/><path d="M660 580c22.1 0 40 17.9 40 40s-17.9 40-40 40h-80c-22.1 0-40-17.9-40-40s17.9-40 40-40z" stroke="#3a414a" fill="#fff3d9"/><use xlink:href="#e" transform="matrix(1,0,0,1,545,585) translate(39.876543209876544 39.65277777777778)"/><path d="M80 766a6 6 0 0 1 6-6h268a6 6 0 0 1 6 6v468a6 6 0 0 1-6 6H86a6 6 0 0 1-6-6z" stroke="#3a414a" fill="#f2f3f5"/><use xlink:href="#k" transform="matrix(1,0,0,1,92.00000000000006,772) translate(39.358024691358025 17.77777777777778)"/><use xlink:href="#l" transform="matrix(1,0,0,1,92.00000000000006,772) translate(135.4074074074074 17.77777777777778)"/><path d="M280 820c11.05 0 20 8.95 20 20s-8.95 20-20 20H160c-11.05 0-20-8.95-20-20s8.95-20 20-20z" stroke="#3a414a" fill="#e3fae3"/><use xlink:href="#m" transform="matrix(1,0,0,1,145,825) translate(41.73339506172839 19.65277777777778)"/><path d="M280 880c11.05 0 20 8.95 20 20s-8.95 20-20 20H160c-11.05 0-20-8.95-20-20s8.95-20 20-20z" stroke="#3a414a" fill="#e3fae3"/><use xlink:href="#n" transform="matrix(1,0,0,1,145.00000000000006,885) translate(39.23339506172839 19.65277777777778)"/><path d="M280 940c11.05 0 20 8.95 20 20s-8.95 20-20 20H160c-11.05 0-20-8.95-20-20s8.95-20 20-20z" stroke="#3a414a" fill="#e3fae3"/><use xlink:href="#o" transform="matrix(1,0,0,1,145,945) translate(42.96796296296296 19.65277777777778)"/><path d="M280 1000c11.05 0 20 8.95 20 20s-8.95 20-20 20H160c-11.05 0-20-8.95-20-20s8.95-20 20-20z" stroke="#3a414a" fill="#e3fae3"/><use xlink:href="#p" transform="matrix(1,0,0,1,145,1005) translate(40.46796296296296 19.65277777777778)"/><path d="M280 1060c11.05 0 20 8.95 20 20s-8.95 20-20 20H160c-11.05 0-20-8.95-20-20s8.95-20 20-20z" stroke="#3a414a" fill="#e3fae3"/><use xlink:href="#q" transform="matrix(1,0,0,1,145.00000000000006,1065) translate(38.06055555555555 19.65277777777778)"/><path d="M280 1120c11.05 0 20 8.95 20 20s-8.95 20-20 20H160c-11.05 0-20-8.95-20-20s8.95-20 20-20z" stroke="#9391ff" fill="#f2f2ff"/><use xlink:href="#r" transform="matrix(1,0,0,1,145.00000000000006,1125) translate(39.85067901234567 19.65277777777778)"/><path d="M138.5 500H46a6 6 0 0 0-6 6v328a6 6 0 0 0 6 6h75" stroke="#008a0e" stroke-width="2" fill="none"/><path d="M139.5 500l.03 1h-1.06v-2h1.1z" stroke="#008a0e" stroke-width=".05" fill="#008a0e"/><path d="M136.26 840L122 844.63v-9.26z" stroke="#008a0e" stroke-width="2" fill="#008a0e"/><path d="M138.5 500H46a6 6 0 0 0-6 6v388a6 6 0 0 0 6 6h75" stroke="#008a0e" stroke-width="2" fill="none"/><path d="M139.5 500l.03 1h-1.06v-2h1.1z" stroke="#008a0e" stroke-width=".05" fill="#008a0e"/><path d="M136.26 900L122 904.63v-9.26z" stroke="#008a0e" stroke-width="2" fill="#008a0e"/><path d="M138.5 500H46a6 6 0 0 0-6 6v448a6 6 0 0 0 6 6h75" stroke="#008a0e" stroke-width="2" fill="none"/><path d="M139.5 500l.03 1h-1.06v-2h1.1z" stroke="#008a0e" stroke-width=".05" fill="#008a0e"/><path d="M136.26 960L122 964.63v-9.26z" stroke="#008a0e" stroke-width="2" fill="#008a0e"/><path d="M301.5 500H384a6 6 0 0 1 6 6v508a6 6 0 0 1-6 6h-65" stroke="#008a0e" stroke-width="2" fill="none"/><path d="M301.53 501h-1.1l.07-1-.04-1h1.07z" stroke="#008a0e" stroke-width=".05" fill="#008a0e"/><path d="M303.74 1020l14.26-4.63v9.26z" stroke="#008a0e" stroke-width="2" fill="#008a0e"/><path d="M301.5 500H384a6 6 0 0 1 6 6v568a6 6 0 0 1-6 6h-65" stroke="#008a0e" stroke-width="2" fill="none"/><path d="M301.53 501h-1.1l.07-1-.04-1h1.07z" stroke="#008a0e" stroke-width=".05" fill="#008a0e"/><path d="M303.74 1080l14.26-4.63v9.27z" stroke="#008a0e" stroke-width="2" fill="#008a0e"/><path d="M138.5 380H16a6 6 0 0 0-6 6v748a6 6 0 0 0 6 6h105" stroke="#635dff" stroke-width="2" fill="none"/><path d="M139.5 380l.03 1h-1.06v-2h1.1z" stroke="#635dff" stroke-width=".05" fill="#635dff"/><path d="M136.26 1140l-14.26 4.63v-9.27z" stroke="#635dff" stroke-width="2" fill="#635dff"/><path d="M280 1180c11.05 0 20 8.95 20 20s-8.95 20-20 20H160c-11.05 0-20-8.95-20-20s8.95-20 20-20z" stroke="#3a414a" fill="#fff3d9"/><use xlink:href="#e" transform="matrix(1,0,0,1,145,1185) translate(39.88154320987654 19.65277777777778)"/><path d="M138.5 620H-14a6 6 0 0 0-6 6v568a6 6 0 0 0 6 6h135" stroke="#fc9432" stroke-width="2" fill="none"/><path d="M139.5 620l.03 1h-1.06v-2h1.1z" stroke="#fc9432" stroke-width=".05" fill="#fc9432"/><path d="M136.26 1200l-14.26 4.63v-9.27z" stroke="#fc9432" stroke-width="2" fill="#fc9432"/><path d="M538.5 620H466a6 6 0 0 0-6 6v568a6 6 0 0 1-6 6H319" stroke="#fc9432" stroke-width="2" fill="none"/><path d="M539.5 620l.03 1h-1.06v-2h1.1z" stroke="#fc9432" stroke-width=".05" fill="#fc9432"/><path d="M303.74 1200l14.26-4.63v9.27z" stroke="#fc9432" stroke-width="2" fill="#fc9432"/><path d="M538.5 380H426a6 6 0 0 0-6 6v748a6 6 0 0 1-6 6h-95" stroke="#635dff" stroke-width="2" fill="none"/><path d="M539.5 380l.03 1h-1.06v-2h1.1z" stroke="#635dff" stroke-width=".05" fill="#635dff"/><path d="M303.74 1140l14.26-4.63v9.27z" stroke="#635dff" stroke-width="2" fill="#635dff"/><defs><path fill="#3a414a" d="M24-248c120-7 223 5 221 122C244-46 201 0 124 0H24v-248zM76-40c74 7 117-18 117-86 0-67-45-88-117-82v168" id="s"/><path fill="#3a414a" d="M185-48c-13 30-37 53-82 52C43 2 14-33 14-96s30-98 90-98c62 0 83 45 84 108H66c0 31 8 55 39 56 18 0 30-7 34-22zm-45-69c5-46-57-63-70-21-2 6-4 13-4 21h74" id="t"/><path fill="#3a414a" d="M121-226c-27-7-43 5-38 36h38v33H83V0H34v-157H6v-33h28c-9-59 32-81 87-68v32" id="u"/><path fill="#3a414a" d="M133-34C117-15 103 5 69 4 32 3 11-16 11-54c-1-60 55-63 116-61 1-26-3-47-28-47-18 1-26 9-28 27l-52-2c7-38 36-58 82-57s74 22 75 68l1 82c-1 14 12 18 25 15v27c-30 8-71 5-69-32zm-48 3c29 0 43-24 42-57-32 0-66-3-65 30 0 17 8 27 23 27" id="v"/><path fill="#3a414a" d="M85 4C-2 5 27-109 22-190h50c7 57-23 150 33 157 60-5 35-97 40-157h50l1 190h-47c-2-12 1-28-3-38-12 25-28 42-61 42" id="w"/><path fill="#3a414a" d="M25 0v-261h50V0H25" id="x"/><path fill="#3a414a" d="M115-3C79 11 28 4 28-45v-112H4v-33h27l15-45h31v45h36v33H77v99c-1 23 16 31 38 25v30" id="y"/><g id="a"><use transform="matrix(0.06172839506172839,0,0,0.06172839506172839,0,0)" xlink:href="#s"/><use transform="matrix(0.06172839506172839,0,0,0.06172839506172839,15.987654320987653,0)" xlink:href="#t"/><use transform="matrix(0.06172839506172839,0,0,0.06172839506172839,28.333333333333332,0)" xlink:href="#u"/><use transform="matrix(0.06172839506172839,0,0,0.06172839506172839,35.67901234567901,0)" xlink:href="#v"/><use transform="matrix(0.06172839506172839,0,0,0.06172839506172839,48.02469135802469,0)" xlink:href="#w"/><use transform="matrix(0.06172839506172839,0,0,0.06172839506172839,61.54320987654321,0)" xlink:href="#x"/><use transform="matrix(0.06172839506172839,0,0,0.06172839506172839,67.71604938271605,0)" xlink:href="#y"/></g><path fill="#3a414a" d="M230 0l2-204L168 0h-37L68-204 70 0H24v-248h70l56 185 57-185h69V0h-46" id="z"/><path fill="#3a414a" d="M110-194c64 0 96 36 96 99 0 64-35 99-97 99-61 0-95-36-95-99 0-62 34-99 96-99zm-1 164c35 0 45-28 45-65 0-40-10-65-43-65-34 0-45 26-45 65 0 36 10 65 43 65" id="A"/><path fill="#3a414a" d="M88-194c31-1 46 15 58 34l-1-101h50l1 261h-48c-2-10 0-23-3-31C134-8 116 4 84 4 32 4 16-41 15-95c0-56 19-97 73-99zm17 164c33 0 40-30 41-66 1-37-9-64-41-64s-38 30-39 65c0 43 13 65 39 65" id="B"/><path fill="#3a414a" d="M137-138c1-29-70-34-71-4 15 46 118 7 119 86 1 83-164 76-172 9l43-7c4 19 20 25 44 25 33 8 57-30 24-41C81-84 22-81 20-136c-2-80 154-74 161-7" id="C"/><g id="b"><use transform="matrix(0.06172839506172839,0,0,0.06172839506172839,0,0)" xlink:href="#z"/><use transform="matrix(0.06172839506172839,0,0,0.06172839506172839,18.456790123456788,0)" xlink:href="#A"/><use transform="matrix(0.06172839506172839,0,0,0.06172839506172839,31.9753086419753,0)" xlink:href="#B"/><use transform="matrix(0.06172839506172839,0,0,0.06172839506172839,45.49382716049382,0)" xlink:href="#w"/><use transform="matrix(0.06172839506172839,0,0,0.06172839506172839,59.01234567901234,0)" xlink:href="#x"/><use transform="matrix(0.06172839506172839,0,0,0.06172839506172839,65.18518518518518,0)" xlink:href="#t"/><use transform="matrix(0.06172839506172839,0,0,0.06172839506172839,77.53086419753086,0)" xlink:href="#C"/></g><path fill="#3a414a" d="M212-179c-10-28-35-45-73-45-59 0-87 40-87 99 0 60 29 101 89 101 43 0 62-24 78-52l27 14C228-24 195 4 139 4 59 4 22-46 18-125c-6-104 99-153 187-111 19 9 31 26 39 46" id="D"/><path fill="#3a414a" d="M106-169C34-169 62-67 57 0H25v-261h32l-1 103c12-21 28-36 61-36 89 0 53 116 60 194h-32v-121c2-32-8-49-39-48" id="E"/><path fill="#3a414a" d="M100-194c63 0 86 42 84 106H49c0 40 14 67 53 68 26 1 43-12 49-29l28 8c-11 28-37 45-77 45C44 4 14-33 15-96c1-61 26-98 85-98zm52 81c6-60-76-77-97-28-3 7-6 17-6 28h103" id="F"/><path fill="#3a414a" d="M96-169c-40 0-48 33-48 73s9 75 48 75c24 0 41-14 43-38l32 2c-6 37-31 61-74 61-59 0-76-41-82-99-10-93 101-131 147-64 4 7 5 14 7 22l-32 3c-4-21-16-35-41-35" id="G"/><path fill="#3a414a" d="M143 0L79-87 56-68V0H24v-261h32v163l83-92h37l-77 82L181 0h-38" id="H"/><g id="c"><use transform="matrix(0.06172839506172839,0,0,0.06172839506172839,0,0)" xlink:href="#D"/><use transform="matrix(0.06172839506172839,0,0,0.06172839506172839,15.987654320987653,0)" xlink:href="#E"/><use transform="matrix(0.06172839506172839,0,0,0.06172839506172839,28.333333333333332,0)" xlink:href="#F"/><use transform="matrix(0.06172839506172839,0,0,0.06172839506172839,40.67901234567901,0)" xlink:href="#G"/><use transform="matrix(0.06172839506172839,0,0,0.06172839506172839,51.79012345679013,0)" xlink:href="#H"/></g><path fill="#3a414a" d="M30-248c87 1 191-15 191 75 0 78-77 80-158 76V0H30v-248zm33 125c57 0 124 11 124-50 0-59-68-47-124-48v98" id="I"/><path fill="#3a414a" d="M114-163C36-179 61-72 57 0H25l-1-190h30c1 12-1 29 2 39 6-27 23-49 58-41v29" id="J"/><path fill="#3a414a" d="M100-194c62-1 85 37 85 99 1 63-27 99-86 99S16-35 15-95c0-66 28-99 85-99zM99-20c44 1 53-31 53-75 0-43-8-75-51-75s-53 32-53 75 10 74 51 75" id="K"/><path fill="#3a414a" d="M135-143c-3-34-86-38-87 0 15 53 115 12 119 90S17 21 10-45l28-5c4 36 97 45 98 0-10-56-113-15-118-90-4-57 82-63 122-42 12 7 21 19 24 35" id="L"/><g id="d"><use transform="matrix(0.06172839506172839,0,0,0.06172839506172839,0,0)" xlink:href="#I"/><use transform="matrix(0.06172839506172839,0,0,0.06172839506172839,14.814814814814813,0)" xlink:href="#J"/><use transform="matrix(0.06172839506172839,0,0,0.06172839506172839,22.160493827160494,0)" xlink:href="#K"/><use transform="matrix(0.06172839506172839,0,0,0.06172839506172839,34.50617283950617,0)" xlink:href="#G"/><use transform="matrix(0.06172839506172839,0,0,0.06172839506172839,45.61728395061728,0)" xlink:href="#F"/><use transform="matrix(0.06172839506172839,0,0,0.06172839506172839,57.962962962962955,0)" xlink:href="#L"/><use transform="matrix(0.06172839506172839,0,0,0.06172839506172839,69.07407407407406,0)" xlink:href="#L"/></g><path fill="#3a414a" d="M233-177c-1 41-23 64-60 70L243 0h-38l-65-103H63V0H30v-248c88 3 205-21 203 71zM63-129c60-2 137 13 137-47 0-61-80-42-137-45v92" id="M"/><path fill="#3a414a" d="M24 0v-261h32V0H24" id="N"/><path fill="#3a414a" d="M141-36C126-15 110 5 73 4 37 3 15-17 15-53c-1-64 63-63 125-63 3-35-9-54-41-54-24 1-41 7-42 31l-33-3c5-37 33-52 76-52 45 0 72 20 72 64v82c-1 20 7 32 28 27v20c-31 9-61-2-59-35zM48-53c0 20 12 33 32 33 41-3 63-29 60-74-43 2-92-5-92 41" id="O"/><path fill="#3a414a" d="M85-194c31 0 48 13 60 33l-1-100h32l1 261h-30c-2-10 0-23-3-31C134-8 116 4 85 4 32 4 16-35 15-94c0-66 23-100 70-100zm9 24c-40 0-46 34-46 75 0 40 6 74 45 74 42 0 51-32 51-76 0-42-9-74-50-73" id="P"/><g id="e"><use transform="matrix(0.06172839506172839,0,0,0.06172839506172839,0,0)" xlink:href="#M"/><use transform="matrix(0.06172839506172839,0,0,0.06172839506172839,15.987654320987653,0)" xlink:href="#F"/><use transform="matrix(0.06172839506172839,0,0,0.06172839506172839,28.333333333333332,0)" xlink:href="#N"/><use transform="matrix(0.06172839506172839,0,0,0.06172839506172839,33.20987654320987,0)" xlink:href="#K"/><use transform="matrix(0.06172839506172839,0,0,0.06172839506172839,45.55555555555555,0)" xlink:href="#O"/><use transform="matrix(0.06172839506172839,0,0,0.06172839506172839,57.90123456790123,0)" xlink:href="#P"/></g><path fill="#3a414a" d="M24 0v-248h52v208h133V0H24" id="Q"/><path fill="#3a414a" d="M25-224v-37h50v37H25zM25 0v-190h50V0H25" id="R"/><g id="f"><use transform="matrix(0.06172839506172839,0,0,0.06172839506172839,0,0)" xlink:href="#Q"/><use transform="matrix(0.06172839506172839,0,0,0.06172839506172839,13.518518518518517,0)" xlink:href="#R"/><use transform="matrix(0.06172839506172839,0,0,0.06172839506172839,19.691358024691358,0)" xlink:href="#C"/><use transform="matrix(0.06172839506172839,0,0,0.06172839506172839,32.03703703703704,0)" xlink:href="#y"/></g><g id="g"><use transform="matrix(0.06172839506172839,0,0,0.06172839506172839,0,0)" xlink:href="#z"/><use transform="matrix(0.06172839506172839,0,0,0.06172839506172839,18.456790123456788,0)" xlink:href="#A"/><use transform="matrix(0.06172839506172839,0,0,0.06172839506172839,31.9753086419753,0)" xlink:href="#B"/><use transform="matrix(0.06172839506172839,0,0,0.06172839506172839,45.49382716049382,0)" xlink:href="#w"/><use transform="matrix(0.06172839506172839,0,0,0.06172839506172839,59.01234567901234,0)" xlink:href="#x"/><use transform="matrix(0.06172839506172839,0,0,0.06172839506172839,65.18518518518518,0)" xlink:href="#t"/></g><path fill="#3a414a" d="M143 4C61 4 22-44 18-125c-5-107 100-154 193-111 17 8 29 25 37 43l-32 9c-13-25-37-40-76-40-61 0-88 39-88 99 0 61 29 100 91 101 35 0 62-11 79-27v-45h-74v-28h105v86C228-13 192 4 143 4" id="S"/><path fill="#3a414a" d="M59-47c-2 24 18 29 38 22v24C64 9 27 4 27-40v-127H5v-23h24l9-43h21v43h35v23H59v120" id="T"/><g id="h"><use transform="matrix(0.06172839506172839,0,0,0.06172839506172839,0,0)" xlink:href="#S"/><use transform="matrix(0.06172839506172839,0,0,0.06172839506172839,17.28395061728395,0)" xlink:href="#F"/><use transform="matrix(0.06172839506172839,0,0,0.06172839506172839,29.629629629629626,0)" xlink:href="#T"/></g><path fill="#3a414a" d="M30 0v-248h187v28H63v79h144v27H63v87h162V0H30" id="U"/><path fill="#3a414a" d="M141 0L90-78 38 0H4l68-98-65-92h35l48 74 47-74h35l-64 92 68 98h-35" id="V"/><path fill="#3a414a" d="M24-231v-30h32v30H24zM24 0v-190h32V0H24" id="W"/><path fill="#3a414a" d="M117-194c89-4 53 116 60 194h-32v-121c0-31-8-49-39-48C34-167 62-67 57 0H25l-1-190h30c1 10-1 24 2 32 11-22 29-35 61-36" id="X"/><path fill="#3a414a" d="M177-190C167-65 218 103 67 71c-23-6-38-20-44-43l32-5c15 47 100 32 89-28v-30C133-14 115 1 83 1 29 1 15-40 15-95c0-56 16-97 71-98 29-1 48 16 59 35 1-10 0-23 2-32h30zM94-22c36 0 50-32 50-73 0-42-14-75-50-75-39 0-46 34-46 75s6 73 46 73" id="Y"/><g id="i"><use transform="matrix(0.06172839506172839,0,0,0.06172839506172839,0,0)" xlink:href="#U"/><use transform="matrix(0.06172839506172839,0,0,0.06172839506172839,14.814814814814813,0)" xlink:href="#V"/><use transform="matrix(0.06172839506172839,0,0,0.06172839506172839,25.925925925925924,0)" xlink:href="#W"/><use transform="matrix(0.06172839506172839,0,0,0.06172839506172839,30.80246913580247,0)" xlink:href="#L"/><use transform="matrix(0.06172839506172839,0,0,0.06172839506172839,41.91358024691358,0)" xlink:href="#T"/><use transform="matrix(0.06172839506172839,0,0,0.06172839506172839,48.086419753086425,0)" xlink:href="#W"/><use transform="matrix(0.06172839506172839,0,0,0.06172839506172839,52.96296296296297,0)" xlink:href="#X"/><use transform="matrix(0.06172839506172839,0,0,0.06172839506172839,65.30864197530865,0)" xlink:href="#Y"/></g><path fill="#3a414a" d="M240-174c0 40-23 61-54 70L253 0h-59l-57-94H76V0H24v-248c93 4 217-23 216 74zM76-134c48-2 112 12 112-38 0-48-66-32-112-35v73" id="Z"/><g id="j"><use transform="matrix(0.06172839506172839,0,0,0.06172839506172839,0,0)" xlink:href="#Z"/><use transform="matrix(0.06172839506172839,0,0,0.06172839506172839,15.987654320987653,0)" xlink:href="#t"/><use transform="matrix(0.06172839506172839,0,0,0.06172839506172839,28.333333333333332,0)" xlink:href="#x"/><use transform="matrix(0.06172839506172839,0,0,0.06172839506172839,34.50617283950617,0)" xlink:href="#A"/><use transform="matrix(0.06172839506172839,0,0,0.06172839506172839,48.02469135802469,0)" xlink:href="#v"/><use transform="matrix(0.06172839506172839,0,0,0.06172839506172839,60.37037037037037,0)" xlink:href="#B"/></g><path fill="#3a414a" d="M199 0l-22-63H83L61 0H9l90-248h61L250 0h-51zm-33-102l-36-108c-10 38-24 72-36 108h72" id="aa"/><path fill="#3a414a" d="M135-194c52 0 70 43 70 98 0 56-19 99-73 100-30 1-46-15-58-35L72 0H24l1-261h50v104c11-23 29-37 60-37zM114-30c31 0 40-27 40-66 0-37-7-63-39-63s-41 28-41 65c0 36 8 64 40 64" id="ab"/><path fill="#3a414a" d="M135-150c-39-12-60 13-60 57V0H25l-1-190h47c2 13-1 29 3 40 6-28 27-53 61-41v41" id="ac"/><path fill="#3a414a" d="M190-63c-7 42-38 67-86 67-59 0-84-38-90-98-12-110 154-137 174-36l-49 2c-2-19-15-32-35-32-30 0-35 28-38 64-6 74 65 87 74 30" id="ad"/><g id="k"><use transform="matrix(0.06172839506172839,0,0,0.06172839506172839,0,0)" xlink:href="#aa"/><use transform="matrix(0.06172839506172839,0,0,0.06172839506172839,15.987654320987653,0)" xlink:href="#ab"/><use transform="matrix(0.06172839506172839,0,0,0.06172839506172839,29.50617283950617,0)" xlink:href="#C"/><use transform="matrix(0.06172839506172839,0,0,0.06172839506172839,41.85185185185185,0)" xlink:href="#y"/><use transform="matrix(0.06172839506172839,0,0,0.06172839506172839,49.197530864197525,0)" xlink:href="#ac"/><use transform="matrix(0.06172839506172839,0,0,0.06172839506172839,57.8395061728395,0)" xlink:href="#v"/><use transform="matrix(0.06172839506172839,0,0,0.06172839506172839,70.18518518518518,0)" xlink:href="#ad"/><use transform="matrix(0.06172839506172839,0,0,0.06172839506172839,82.53086419753086,0)" xlink:href="#y"/></g><path fill="#3a414a" d="M135-194c87-1 58 113 63 194h-50c-7-57 23-157-34-157-59 0-34 97-39 157H25l-1-190h47c2 12-1 28 3 38 12-26 28-41 61-42" id="ae"/><g id="l"><use transform="matrix(0.06172839506172839,0,0,0.06172839506172839,0,0)" xlink:href="#aa"/><use transform="matrix(0.06172839506172839,0,0,0.06172839506172839,15.987654320987653,0)" xlink:href="#ad"/><use transform="matrix(0.06172839506172839,0,0,0.06172839506172839,28.333333333333332,0)" xlink:href="#y"/><use transform="matrix(0.06172839506172839,0,0,0.06172839506172839,35.67901234567901,0)" xlink:href="#R"/><use transform="matrix(0.06172839506172839,0,0,0.06172839506172839,41.851851851851855,0)" xlink:href="#A"/><use transform="matrix(0.06172839506172839,0,0,0.06172839506172839,55.370370370370374,0)" xlink:href="#ae"/><use transform="matrix(0.06172839506172839,0,0,0.06172839506172839,68.88888888888889,0)" xlink:href="#C"/></g><g id="m"><use transform="matrix(0.06172839506172839,0,0,0.06172839506172839,0,0)" xlink:href="#D"/><use transform="matrix(0.06172839506172839,0,0,0.06172839506172839,15.987654320987653,0)" xlink:href="#J"/><use transform="matrix(0.06172839506172839,0,0,0.06172839506172839,23.333333333333332,0)" xlink:href="#F"/><use transform="matrix(0.06172839506172839,0,0,0.06172839506172839,35.67901234567901,0)" xlink:href="#O"/><use transform="matrix(0.06172839506172839,0,0,0.06172839506172839,48.02469135802469,0)" xlink:href="#T"/><use transform="matrix(0.06172839506172839,0,0,0.06172839506172839,54.19753086419753,0)" xlink:href="#F"/></g><path fill="#3a414a" d="M232-93c-1 65-40 97-104 97C67 4 28-28 28-90v-158h33c8 89-33 224 67 224 102 0 64-133 71-224h33v155" id="af"/><path fill="#3a414a" d="M115-194c55 1 70 41 70 98S169 2 115 4C84 4 66-9 55-30l1 105H24l-1-265h31l2 30c10-21 28-34 59-34zm-8 174c40 0 45-34 45-75s-6-73-45-74c-42 0-51 32-51 76 0 43 10 73 51 73" id="ag"/><g id="n"><use transform="matrix(0.06172839506172839,0,0,0.06172839506172839,0,0)" xlink:href="#af"/><use transform="matrix(0.06172839506172839,0,0,0.06172839506172839,15.987654320987653,0)" xlink:href="#ag"/><use transform="matrix(0.06172839506172839,0,0,0.06172839506172839,28.333333333333332,0)" xlink:href="#P"/><use transform="matrix(0.06172839506172839,0,0,0.06172839506172839,40.67901234567901,0)" xlink:href="#O"/><use transform="matrix(0.06172839506172839,0,0,0.06172839506172839,53.02469135802469,0)" xlink:href="#T"/><use transform="matrix(0.06172839506172839,0,0,0.06172839506172839,59.19753086419753,0)" xlink:href="#F"/></g><path fill="#3a414a" d="M30-248c118-7 216 8 213 122C240-48 200 0 122 0H30v-248zM63-27c89 8 146-16 146-99s-60-101-146-95v194" id="ah"/><g id="o"><use transform="matrix(0.06172839506172839,0,0,0.06172839506172839,0,0)" xlink:href="#ah"/><use transform="matrix(0.06172839506172839,0,0,0.06172839506172839,15.987654320987653,0)" xlink:href="#F"/><use transform="matrix(0.06172839506172839,0,0,0.06172839506172839,28.333333333333332,0)" xlink:href="#N"/><use transform="matrix(0.06172839506172839,0,0,0.06172839506172839,33.20987654320987,0)" xlink:href="#F"/><use transform="matrix(0.06172839506172839,0,0,0.06172839506172839,45.55555555555555,0)" xlink:href="#T"/><use transform="matrix(0.06172839506172839,0,0,0.06172839506172839,51.72839506172839,0)" xlink:href="#F"/></g><path fill="#3a414a" d="M115-194c53 0 69 39 70 98 0 66-23 100-70 100C84 3 66-7 56-30L54 0H23l1-261h32v101c10-23 28-34 59-34zm-8 174c40 0 45-34 45-75 0-40-5-75-45-74-42 0-51 32-51 76 0 43 10 73 51 73" id="ai"/><g id="p"><use transform="matrix(0.06172839506172839,0,0,0.06172839506172839,0,0)" xlink:href="#U"/><use transform="matrix(0.06172839506172839,0,0,0.06172839506172839,14.814814814814813,0)" xlink:href="#X"/><use transform="matrix(0.06172839506172839,0,0,0.06172839506172839,27.160493827160494,0)" xlink:href="#O"/><use transform="matrix(0.06172839506172839,0,0,0.06172839506172839,39.50617283950617,0)" xlink:href="#ai"/><use transform="matrix(0.06172839506172839,0,0,0.06172839506172839,51.85185185185185,0)" xlink:href="#N"/><use transform="matrix(0.06172839506172839,0,0,0.06172839506172839,56.72839506172839,0)" xlink:href="#F"/></g><g id="q"><use transform="matrix(0.06172839506172839,0,0,0.06172839506172839,0,0)" xlink:href="#ah"/><use transform="matrix(0.06172839506172839,0,0,0.06172839506172839,15.987654320987653,0)" xlink:href="#W"/><use transform="matrix(0.06172839506172839,0,0,0.06172839506172839,20.864197530864196,0)" xlink:href="#L"/><use transform="matrix(0.06172839506172839,0,0,0.06172839506172839,31.975308641975307,0)" xlink:href="#O"/><use transform="matrix(0.06172839506172839,0,0,0.06172839506172839,44.32098765432099,0)" xlink:href="#ai"/><use transform="matrix(0.06172839506172839,0,0,0.06172839506172839,56.666666666666664,0)" xlink:href="#N"/><use transform="matrix(0.06172839506172839,0,0,0.06172839506172839,61.54320987654321,0)" xlink:href="#F"/></g><path fill="#3a414a" d="M185-189c-5-48-123-54-124 2 14 75 158 14 163 119 3 78-121 87-175 55-17-10-28-26-33-46l33-7c5 56 141 63 141-1 0-78-155-14-162-118-5-82 145-84 179-34 5 7 8 16 11 25" id="aj"/><g id="r"><use transform="matrix(0.06172839506172839,0,0,0.06172839506172839,0,0)" xlink:href="#aj"/><use transform="matrix(0.06172839506172839,0,0,0.06172839506172839,14.814814814814813,0)" xlink:href="#F"/><use transform="matrix(0.06172839506172839,0,0,0.06172839506172839,27.160493827160494,0)" xlink:href="#O"/><use transform="matrix(0.06172839506172839,0,0,0.06172839506172839,39.50617283950617,0)" xlink:href="#J"/><use transform="matrix(0.06172839506172839,0,0,0.06172839506172839,46.85185185185185,0)" xlink:href="#G"/><use transform="matrix(0.06172839506172839,0,0,0.06172839506172839,57.96296296296296,0)" xlink:href="#E"/></g></defs></g></svg>